<svg xmlns="http://www.w3.org/2000/svg" xmlns:xlink="http://www.w3.org/1999/xlink" width="1931" zoomAndPan="magnify" viewBox="0 0 1448.25 383.999986" height="512" preserveAspectRatio="xMidYMid meet" version="1.2"><defs><clipPath id="ae3b0868ac"><path d="M 159.832031 2.160156 L 541.574219 2.160156 L 541.574219 383.898438 L 159.832031 383.898438 Z M 159.832031 2.160156 "/></clipPath><clipPath id="c2421982fc"><path d="M 350.703125 2.160156 C 245.285156 2.160156 159.832031 87.613281 159.832031 193.03125 C 159.832031 298.445312 245.285156 383.902344 350.703125 383.902344 C 456.117188 383.902344 541.574219 298.445312 541.574219 193.03125 C 541.574219 87.613281 456.117188 2.160156 350.703125 2.160156 Z M 350.703125 2.160156 "/></clipPath><linearGradient x1="-0.00000422967" gradientTransform="matrix(1.49118,0,0,1.49118,159.831154,2.158485)" y1="-0.00000422967" x2="255.999976" gradientUnits="userSpaceOnUse" y2="255.999976" id="8d5cc5c427"><stop style="stop-color:#007bff;stop-opacity:1;" offset="0"/><stop style="stop-color:#017afe;stop-opacity:1;" offset="0.00390625"/><stop style="stop-color:#027afd;stop-opacity:1;" offset="0.0078125"/><stop style="stop-color:#0379fc;stop-opacity:1;" offset="0.0117188"/><stop style="stop-color:#0479fb;stop-opacity:1;" offset="0.015625"/><stop style="stop-color:#0579fa;stop-opacity:1;" offset="0.0195313"/><stop style="stop-color:#0678f9;stop-opacity:1;" offset="0.0234375"/><stop style="stop-color:#0778f8;stop-opacity:1;" offset="0.0273438"/><stop style="stop-color:#0877f7;stop-opacity:1;" offset="0.03125"/><stop style="stop-color:#0977f6;stop-opacity:1;" offset="0.0351562"/><stop style="stop-color:#0a76f5;stop-opacity:1;" offset="0.0390625"/><stop style="stop-color:#0b76f4;stop-opacity:1;" offset="0.0429688"/><stop style="stop-color:#0c75f3;stop-opacity:1;" offset="0.046875"/><stop style="stop-color:#0d75f2;stop-opacity:1;" offset="0.0507812"/><stop style="stop-color:#0e74f1;stop-opacity:1;" offset="0.0546875"/><stop style="stop-color:#0f74f0;stop-opacity:1;" offset="0.0585938"/><stop style="stop-color:#1073ef;stop-opacity:1;" offset="0.0625"/><stop style="stop-color:#1173ee;stop-opacity:1;" offset="0.0664062"/><stop style="stop-color:#1272ed;stop-opacity:1;" offset="0.0703125"/><stop style="stop-color:#1372ec;stop-opacity:1;" offset="0.0742188"/><stop style="stop-color:#1471eb;stop-opacity:1;" offset="0.078125"/><stop style="stop-color:#1571ea;stop-opacity:1;" offset="0.0820312"/><stop style="stop-color:#1670e9;stop-opacity:1;" offset="0.0859375"/><stop style="stop-color:#1770e8;stop-opacity:1;" offset="0.0898438"/><stop style="stop-color:#186fe7;stop-opacity:1;" offset="0.09375"/><stop style="stop-color:#196fe6;stop-opacity:1;" offset="0.0976562"/><stop style="stop-color:#1a6ee5;stop-opacity:1;" offset="0.101562"/><stop style="stop-color:#1b6ee4;stop-opacity:1;" offset="0.105469"/><stop style="stop-color:#1c6de3;stop-opacity:1;" offset="0.109375"/><stop style="stop-color:#1d6de2;stop-opacity:1;" offset="0.113281"/><stop style="stop-color:#1e6de1;stop-opacity:1;" offset="0.117188"/><stop style="stop-color:#1f6ce0;stop-opacity:1;" offset="0.121094"/><stop style="stop-color:#206cdf;stop-opacity:1;" offset="0.125"/><stop style="stop-color:#216bde;stop-opacity:1;" offset="0.128906"/><stop style="stop-color:#226bdd;stop-opacity:1;" offset="0.132812"/><stop style="stop-color:#236adc;stop-opacity:1;" offset="0.136719"/><stop style="stop-color:#246adb;stop-opacity:1;" offset="0.140625"/><stop style="stop-color:#2569da;stop-opacity:1;" offset="0.144531"/><stop style="stop-color:#2669d9;stop-opacity:1;" offset="0.148438"/><stop style="stop-color:#2768d8;stop-opacity:1;" offset="0.152344"/><stop style="stop-color:#2868d7;stop-opacity:1;" offset="0.15625"/><stop style="stop-color:#2967d6;stop-opacity:1;" offset="0.160156"/><stop style="stop-color:#2a67d5;stop-opacity:1;" offset="0.164062"/><stop style="stop-color:#2b66d4;stop-opacity:1;" offset="0.167969"/><stop style="stop-color:#2c66d3;stop-opacity:1;" offset="0.171875"/><stop style="stop-color:#2d65d2;stop-opacity:1;" offset="0.175781"/><stop style="stop-color:#2e65d1;stop-opacity:1;" offset="0.179688"/><stop style="stop-color:#2f64d0;stop-opacity:1;" offset="0.183594"/><stop style="stop-color:#3064cf;stop-opacity:1;" offset="0.1875"/><stop style="stop-color:#3163ce;stop-opacity:1;" offset="0.191406"/><stop style="stop-color:#3263cd;stop-opacity:1;" offset="0.195312"/><stop style="stop-color:#3362cc;stop-opacity:1;" offset="0.199219"/><stop style="stop-color:#3462cb;stop-opacity:1;" offset="0.203125"/><stop style="stop-color:#3561ca;stop-opacity:1;" offset="0.207031"/><stop style="stop-color:#3661c9;stop-opacity:1;" offset="0.210938"/><stop style="stop-color:#3761c8;stop-opacity:1;" offset="0.214844"/><stop style="stop-color:#3860c7;stop-opacity:1;" offset="0.21875"/><stop style="stop-color:#3960c6;stop-opacity:1;" offset="0.222656"/><stop style="stop-color:#3a5fc5;stop-opacity:1;" offset="0.226563"/><stop style="stop-color:#3b5fc4;stop-opacity:1;" offset="0.230469"/><stop style="stop-color:#3c5ec3;stop-opacity:1;" offset="0.234375"/><stop style="stop-color:#3d5ec2;stop-opacity:1;" offset="0.238281"/><stop style="stop-color:#3e5dc1;stop-opacity:1;" offset="0.242188"/><stop style="stop-color:#3f5dc0;stop-opacity:1;" offset="0.246094"/><stop style="stop-color:#405cbf;stop-opacity:1;" offset="0.25"/><stop style="stop-color:#415cbe;stop-opacity:1;" offset="0.253906"/><stop style="stop-color:#425bbd;stop-opacity:1;" offset="0.257813"/><stop style="stop-color:#435bbc;stop-opacity:1;" offset="0.261719"/><stop style="stop-color:#445abb;stop-opacity:1;" offset="0.265625"/><stop style="stop-color:#455aba;stop-opacity:1;" offset="0.269531"/><stop style="stop-color:#4659b9;stop-opacity:1;" offset="0.273438"/><stop style="stop-color:#4759b8;stop-opacity:1;" offset="0.277344"/><stop style="stop-color:#4858b7;stop-opacity:1;" offset="0.28125"/><stop style="stop-color:#4958b6;stop-opacity:1;" offset="0.285156"/><stop style="stop-color:#4a57b5;stop-opacity:1;" offset="0.289063"/><stop style="stop-color:#4b57b4;stop-opacity:1;" offset="0.292969"/><stop style="stop-color:#4c56b3;stop-opacity:1;" offset="0.296875"/><stop style="stop-color:#4d56b2;stop-opacity:1;" offset="0.300781"/><stop style="stop-color:#4e55b1;stop-opacity:1;" offset="0.304688"/><stop style="stop-color:#4f55b0;stop-opacity:1;" offset="0.308594"/><stop style="stop-color:#5054af;stop-opacity:1;" offset="0.3125"/><stop style="stop-color:#5154ae;stop-opacity:1;" offset="0.316406"/><stop style="stop-color:#5254ad;stop-opacity:1;" offset="0.320312"/><stop style="stop-color:#5353ac;stop-opacity:1;" offset="0.324219"/><stop style="stop-color:#5453ab;stop-opacity:1;" offset="0.328125"/><stop style="stop-color:#5552aa;stop-opacity:1;" offset="0.332031"/><stop style="stop-color:#5652a9;stop-opacity:1;" offset="0.335938"/><stop style="stop-color:#5751a8;stop-opacity:1;" offset="0.339844"/><stop style="stop-color:#5851a7;stop-opacity:1;" offset="0.34375"/><stop style="stop-color:#5950a6;stop-opacity:1;" offset="0.347656"/><stop style="stop-color:#5a50a5;stop-opacity:1;" offset="0.351562"/><stop style="stop-color:#5b4fa4;stop-opacity:1;" offset="0.355469"/><stop style="stop-color:#5c4fa3;stop-opacity:1;" offset="0.359375"/><stop style="stop-color:#5d4ea2;stop-opacity:1;" offset="0.363281"/><stop style="stop-color:#5e4ea1;stop-opacity:1;" offset="0.367188"/><stop style="stop-color:#5f4da0;stop-opacity:1;" offset="0.371094"/><stop style="stop-color:#604d9f;stop-opacity:1;" offset="0.375"/><stop style="stop-color:#614c9e;stop-opacity:1;" offset="0.378906"/><stop style="stop-color:#624c9d;stop-opacity:1;" offset="0.382812"/><stop style="stop-color:#634b9c;stop-opacity:1;" offset="0.386719"/><stop style="stop-color:#644b9b;stop-opacity:1;" offset="0.390625"/><stop style="stop-color:#654a9a;stop-opacity:1;" offset="0.394531"/><stop style="stop-color:#664a99;stop-opacity:1;" offset="0.398438"/><stop style="stop-color:#674998;stop-opacity:1;" offset="0.402344"/><stop style="stop-color:#684997;stop-opacity:1;" offset="0.40625"/><stop style="stop-color:#694896;stop-opacity:1;" offset="0.410156"/><stop style="stop-color:#6a4895;stop-opacity:1;" offset="0.414063"/><stop style="stop-color:#6b4894;stop-opacity:1;" offset="0.417969"/><stop style="stop-color:#6c4793;stop-opacity:1;" offset="0.421875"/><stop style="stop-color:#6d4792;stop-opacity:1;" offset="0.425781"/><stop style="stop-color:#6e4691;stop-opacity:1;" offset="0.429688"/><stop style="stop-color:#6f4690;stop-opacity:1;" offset="0.433594"/><stop style="stop-color:#70458f;stop-opacity:1;" offset="0.4375"/><stop style="stop-color:#71458e;stop-opacity:1;" offset="0.441406"/><stop style="stop-color:#72448d;stop-opacity:1;" offset="0.445313"/><stop style="stop-color:#73448c;stop-opacity:1;" offset="0.449219"/><stop style="stop-color:#74438b;stop-opacity:1;" offset="0.453125"/><stop style="stop-color:#75438a;stop-opacity:1;" offset="0.457031"/><stop style="stop-color:#764289;stop-opacity:1;" offset="0.460938"/><stop style="stop-color:#774288;stop-opacity:1;" offset="0.464844"/><stop style="stop-color:#784187;stop-opacity:1;" offset="0.46875"/><stop style="stop-color:#794186;stop-opacity:1;" offset="0.472656"/><stop style="stop-color:#7a4085;stop-opacity:1;" offset="0.476563"/><stop style="stop-color:#7b4084;stop-opacity:1;" offset="0.480469"/><stop style="stop-color:#7c3f83;stop-opacity:1;" offset="0.484375"/><stop style="stop-color:#7d3f82;stop-opacity:1;" offset="0.488281"/><stop style="stop-color:#7e3e81;stop-opacity:1;" offset="0.492188"/><stop style="stop-color:#7f3e80;stop-opacity:1;" offset="0.496094"/><stop style="stop-color:#7f3d80;stop-opacity:1;" offset="0.5"/><stop style="stop-color:#803d7f;stop-opacity:1;" offset="0.503906"/><stop style="stop-color:#813c7e;stop-opacity:1;" offset="0.507812"/><stop style="stop-color:#823c7d;stop-opacity:1;" offset="0.511719"/><stop style="stop-color:#833c7c;stop-opacity:1;" offset="0.515625"/><stop style="stop-color:#843b7b;stop-opacity:1;" offset="0.519531"/><stop style="stop-color:#853b7a;stop-opacity:1;" offset="0.523438"/><stop style="stop-color:#863a79;stop-opacity:1;" offset="0.527344"/><stop style="stop-color:#873a78;stop-opacity:1;" offset="0.53125"/><stop style="stop-color:#883977;stop-opacity:1;" offset="0.535156"/><stop style="stop-color:#893976;stop-opacity:1;" offset="0.539063"/><stop style="stop-color:#8a3875;stop-opacity:1;" offset="0.542969"/><stop style="stop-color:#8b3874;stop-opacity:1;" offset="0.546875"/><stop style="stop-color:#8c3773;stop-opacity:1;" offset="0.550781"/><stop style="stop-color:#8d3772;stop-opacity:1;" offset="0.554688"/><stop style="stop-color:#8e3671;stop-opacity:1;" offset="0.558594"/><stop style="stop-color:#8f3670;stop-opacity:1;" offset="0.5625"/><stop style="stop-color:#90356f;stop-opacity:1;" offset="0.566406"/><stop style="stop-color:#91356e;stop-opacity:1;" offset="0.570312"/><stop style="stop-color:#92346d;stop-opacity:1;" offset="0.574219"/><stop style="stop-color:#93346c;stop-opacity:1;" offset="0.578125"/><stop style="stop-color:#94336b;stop-opacity:1;" offset="0.582031"/><stop style="stop-color:#95336a;stop-opacity:1;" offset="0.585938"/><stop style="stop-color:#963269;stop-opacity:1;" offset="0.589844"/><stop style="stop-color:#973268;stop-opacity:1;" offset="0.59375"/><stop style="stop-color:#983167;stop-opacity:1;" offset="0.597656"/><stop style="stop-color:#993166;stop-opacity:1;" offset="0.601562"/><stop style="stop-color:#9a3065;stop-opacity:1;" offset="0.605469"/><stop style="stop-color:#9b3064;stop-opacity:1;" offset="0.609375"/><stop style="stop-color:#9c3063;stop-opacity:1;" offset="0.613281"/><stop style="stop-color:#9d2f62;stop-opacity:1;" offset="0.617188"/><stop style="stop-color:#9e2f61;stop-opacity:1;" offset="0.621094"/><stop style="stop-color:#9f2e60;stop-opacity:1;" offset="0.625"/><stop style="stop-color:#a02e5f;stop-opacity:1;" offset="0.628906"/><stop style="stop-color:#a12d5e;stop-opacity:1;" offset="0.632813"/><stop style="stop-color:#a22d5d;stop-opacity:1;" offset="0.636719"/><stop style="stop-color:#a32c5c;stop-opacity:1;" offset="0.640625"/><stop style="stop-color:#a42c5b;stop-opacity:1;" offset="0.644531"/><stop style="stop-color:#a52b5a;stop-opacity:1;" offset="0.648438"/><stop style="stop-color:#a62b59;stop-opacity:1;" offset="0.652344"/><stop style="stop-color:#a72a58;stop-opacity:1;" offset="0.65625"/><stop style="stop-color:#a82a57;stop-opacity:1;" offset="0.660156"/><stop style="stop-color:#a92956;stop-opacity:1;" offset="0.664063"/><stop style="stop-color:#aa2955;stop-opacity:1;" offset="0.667969"/><stop style="stop-color:#ab2854;stop-opacity:1;" offset="0.671875"/><stop style="stop-color:#ac2853;stop-opacity:1;" offset="0.675781"/><stop style="stop-color:#ad2752;stop-opacity:1;" offset="0.679688"/><stop style="stop-color:#ae2751;stop-opacity:1;" offset="0.683594"/><stop style="stop-color:#af2650;stop-opacity:1;" offset="0.6875"/><stop style="stop-color:#b0264f;stop-opacity:1;" offset="0.691406"/><stop style="stop-color:#b1254e;stop-opacity:1;" offset="0.695312"/><stop style="stop-color:#b2254d;stop-opacity:1;" offset="0.699219"/><stop style="stop-color:#b3244c;stop-opacity:1;" offset="0.703125"/><stop style="stop-color:#b4244b;stop-opacity:1;" offset="0.707031"/><stop style="stop-color:#b5244a;stop-opacity:1;" offset="0.710938"/><stop style="stop-color:#b62349;stop-opacity:1;" offset="0.714844"/><stop style="stop-color:#b72348;stop-opacity:1;" offset="0.71875"/><stop style="stop-color:#b82247;stop-opacity:1;" offset="0.722656"/><stop style="stop-color:#b92246;stop-opacity:1;" offset="0.726563"/><stop style="stop-color:#ba2145;stop-opacity:1;" offset="0.730469"/><stop style="stop-color:#bb2144;stop-opacity:1;" offset="0.734375"/><stop style="stop-color:#bc2043;stop-opacity:1;" offset="0.738281"/><stop style="stop-color:#bd2042;stop-opacity:1;" offset="0.742188"/><stop style="stop-color:#be1f41;stop-opacity:1;" offset="0.746094"/><stop style="stop-color:#bf1f40;stop-opacity:1;" offset="0.75"/><stop style="stop-color:#c01e3f;stop-opacity:1;" offset="0.753906"/><stop style="stop-color:#c11e3e;stop-opacity:1;" offset="0.757813"/><stop style="stop-color:#c21d3d;stop-opacity:1;" offset="0.761719"/><stop style="stop-color:#c31d3c;stop-opacity:1;" offset="0.765625"/><stop style="stop-color:#c41c3b;stop-opacity:1;" offset="0.769531"/><stop style="stop-color:#c51c3a;stop-opacity:1;" offset="0.773438"/><stop style="stop-color:#c61b39;stop-opacity:1;" offset="0.777344"/><stop style="stop-color:#c71b38;stop-opacity:1;" offset="0.78125"/><stop style="stop-color:#c81a37;stop-opacity:1;" offset="0.785156"/><stop style="stop-color:#c91a36;stop-opacity:1;" offset="0.789062"/><stop style="stop-color:#ca1935;stop-opacity:1;" offset="0.792969"/><stop style="stop-color:#cb1934;stop-opacity:1;" offset="0.796875"/><stop style="stop-color:#cc1833;stop-opacity:1;" offset="0.800781"/><stop style="stop-color:#cd1832;stop-opacity:1;" offset="0.804688"/><stop style="stop-color:#ce1831;stop-opacity:1;" offset="0.808594"/><stop style="stop-color:#cf1730;stop-opacity:1;" offset="0.8125"/><stop style="stop-color:#d0172f;stop-opacity:1;" offset="0.816406"/><stop style="stop-color:#d1162e;stop-opacity:1;" offset="0.820312"/><stop style="stop-color:#d2162d;stop-opacity:1;" offset="0.824219"/><stop style="stop-color:#d3152c;stop-opacity:1;" offset="0.828125"/><stop style="stop-color:#d4152b;stop-opacity:1;" offset="0.832031"/><stop style="stop-color:#d5142a;stop-opacity:1;" offset="0.835938"/><stop style="stop-color:#d61429;stop-opacity:1;" offset="0.839844"/><stop style="stop-color:#d71328;stop-opacity:1;" offset="0.84375"/><stop style="stop-color:#d81327;stop-opacity:1;" offset="0.847656"/><stop style="stop-color:#d91226;stop-opacity:1;" offset="0.851563"/><stop style="stop-color:#da1225;stop-opacity:1;" offset="0.855469"/><stop style="stop-color:#db1124;stop-opacity:1;" offset="0.859375"/><stop style="stop-color:#dc1123;stop-opacity:1;" offset="0.863281"/><stop style="stop-color:#dd1022;stop-opacity:1;" offset="0.867188"/><stop style="stop-color:#de1021;stop-opacity:1;" offset="0.871094"/><stop style="stop-color:#df0f20;stop-opacity:1;" offset="0.875"/><stop style="stop-color:#e00f1f;stop-opacity:1;" offset="0.878906"/><stop style="stop-color:#e10e1e;stop-opacity:1;" offset="0.882813"/><stop style="stop-color:#e20e1d;stop-opacity:1;" offset="0.886719"/><stop style="stop-color:#e30d1c;stop-opacity:1;" offset="0.890625"/><stop style="stop-color:#e40d1b;stop-opacity:1;" offset="0.894531"/><stop style="stop-color:#e50c1a;stop-opacity:1;" offset="0.898437"/><stop style="stop-color:#e60c19;stop-opacity:1;" offset="0.902344"/><stop style="stop-color:#e70c18;stop-opacity:1;" offset="0.90625"/><stop style="stop-color:#e80b17;stop-opacity:1;" offset="0.910156"/><stop style="stop-color:#e90b16;stop-opacity:1;" offset="0.914062"/><stop style="stop-color:#ea0a15;stop-opacity:1;" offset="0.917969"/><stop style="stop-color:#eb0a14;stop-opacity:1;" offset="0.921875"/><stop style="stop-color:#ec0913;stop-opacity:1;" offset="0.925781"/><stop style="stop-color:#ed0912;stop-opacity:1;" offset="0.929688"/><stop style="stop-color:#ee0811;stop-opacity:1;" offset="0.933594"/><stop style="stop-color:#ef0810;stop-opacity:1;" offset="0.9375"/><stop style="stop-color:#f0070f;stop-opacity:1;" offset="0.941406"/><stop style="stop-color:#f1070e;stop-opacity:1;" offset="0.945312"/><stop style="stop-color:#f2060d;stop-opacity:1;" offset="0.949219"/><stop style="stop-color:#f3060c;stop-opacity:1;" offset="0.953125"/><stop style="stop-color:#f4050b;stop-opacity:1;" offset="0.957031"/><stop style="stop-color:#f5050a;stop-opacity:1;" offset="0.960938"/><stop style="stop-color:#f60409;stop-opacity:1;" offset="0.964844"/><stop style="stop-color:#f70408;stop-opacity:1;" offset="0.96875"/><stop style="stop-color:#f80307;stop-opacity:1;" offset="0.972656"/><stop style="stop-color:#f90306;stop-opacity:1;" offset="0.976563"/><stop style="stop-color:#fa0205;stop-opacity:1;" offset="0.980469"/><stop style="stop-color:#fb0204;stop-opacity:1;" offset="0.984375"/><stop style="stop-color:#fc0103;stop-opacity:1;" offset="0.988281"/><stop style="stop-color:#fd0102;stop-opacity:1;" offset="0.992188"/><stop style="stop-color:#fe0001;stop-opacity:1;" offset="0.996094"/><stop style="stop-color:#ff0000;stop-opacity:1;" offset="1"/></linearGradient><clipPath id="2bda1f129f"><path d="M 226.738281 104.085938 L 474.859375 104.085938 L 474.859375 281.742188 L 226.738281 281.742188 Z M 226.738281 104.085938 "/></clipPath></defs><g id="b9761860c7"><g style="fill:#ffffff;fill-opacity:1;"><g transform="translate(609.662467, 268.408781)"><path style="stroke:none" d="M 21.140625 0 L 21.140625 -149.8125 L 58.59375 -149.8125 L 58.59375 -132.90625 L 64.03125 -132.90625 C 66.25 -138.945312 69.925781 -143.375 75.0625 -146.1875 C 80.195312 -149.007812 86.1875 -150.421875 93.03125 -150.421875 L 111.15625 -150.421875 L 111.15625 -116.59375 L 92.421875 -116.59375 C 82.753906 -116.59375 74.800781 -114.023438 68.5625 -108.890625 C 62.320312 -103.753906 59.203125 -95.847656 59.203125 -85.171875 L 59.203125 0 Z M 21.140625 0 "/></g></g><g style="fill:#ffffff;fill-opacity:1;"><g transform="translate(729.264571, 268.408781)"><path style="stroke:none" d="M 78.234375 2.421875 C 66.554688 2.421875 56.335938 -0.242188 47.578125 -5.578125 C 38.816406 -10.921875 32.019531 -18.320312 27.1875 -27.78125 C 22.351562 -37.25 19.9375 -48.125 19.9375 -60.40625 L 19.9375 -149.8125 L 58 -149.8125 L 58 -63.4375 C 58 -52.15625 60.765625 -43.691406 66.296875 -38.046875 C 71.835938 -32.410156 79.742188 -29.59375 90.015625 -29.59375 C 101.691406 -29.59375 110.75 -33.46875 117.1875 -41.21875 C 123.632812 -48.976562 126.859375 -59.804688 126.859375 -73.703125 L 126.859375 -149.8125 L 164.921875 -149.8125 L 164.921875 0 L 127.46875 0 L 127.46875 -19.640625 L 122.03125 -19.640625 C 119.613281 -14.597656 115.082031 -9.660156 108.4375 -4.828125 C 101.789062 0.00390625 91.722656 2.421875 78.234375 2.421875 Z M 78.234375 2.421875 "/></g></g><g style="fill:#ffffff;fill-opacity:1;"><g transform="translate(915.3123, 268.408781)"><path style="stroke:none" d="M 37.453125 60.40625 L 37.453125 27.1875 L 119 27.1875 C 124.644531 27.1875 127.46875 24.164062 127.46875 18.125 L 127.46875 -19.640625 L 122.03125 -19.640625 C 119.613281 -14.597656 115.082031 -9.660156 108.4375 -4.828125 C 101.789062 0.00390625 91.722656 2.421875 78.234375 2.421875 C 66.554688 2.421875 56.335938 -0.242188 47.578125 -5.578125 C 38.816406 -10.921875 32.019531 -18.320312 27.1875 -27.78125 C 22.351562 -37.25 19.9375 -48.125 19.9375 -60.40625 L 19.9375 -149.8125 L 58 -149.8125 L 58 -63.4375 C 58 -52.15625 60.765625 -43.691406 66.296875 -38.046875 C 71.835938 -32.410156 79.742188 -29.59375 90.015625 -29.59375 C 101.691406 -29.59375 110.75 -33.46875 117.1875 -41.21875 C 123.632812 -48.976562 126.859375 -59.804688 126.859375 -73.703125 L 126.859375 -149.8125 L 164.921875 -149.8125 L 164.921875 26.578125 C 164.921875 36.847656 161.898438 45.050781 155.859375 51.1875 C 149.816406 57.332031 141.757812 60.40625 131.6875 60.40625 Z M 37.453125 60.40625 "/></g></g><g style="fill:#ffffff;fill-opacity:1;"><g transform="translate(1101.360029, 268.408781)"><path style="stroke:none" d="M 78.234375 2.421875 C 66.554688 2.421875 56.335938 -0.242188 47.578125 -5.578125 C 38.816406 -10.921875 32.019531 -18.320312 27.1875 -27.78125 C 22.351562 -37.25 19.9375 -48.125 19.9375 -60.40625 L 19.9375 -149.8125 L 58 -149.8125 L 58 -63.4375 C 58 -52.15625 60.765625 -43.691406 66.296875 -38.046875 C 71.835938 -32.410156 79.742188 -29.59375 90.015625 -29.59375 C 101.691406 -29.59375 110.75 -33.46875 117.1875 -41.21875 C 123.632812 -48.976562 126.859375 -59.804688 126.859375 -73.703125 L 126.859375 -149.8125 L 164.921875 -149.8125 L 164.921875 0 L 127.46875 0 L 127.46875 -19.640625 L 122.03125 -19.640625 C 119.613281 -14.597656 115.082031 -9.660156 108.4375 -4.828125 C 101.789062 0.00390625 91.722656 2.421875 78.234375 2.421875 Z M 78.234375 2.421875 "/></g></g><g clip-rule="nonzero" clip-path="url(#ae3b0868ac)"><g clip-rule="nonzero" clip-path="url(#c2421982fc)"><path style=" stroke:none;fill-rule:nonzero;fill:url(#8d5cc5c427);" d="M 159.832031 2.160156 L 159.832031 383.902344 L 541.574219 383.902344 L 541.574219 2.160156 Z M 159.832031 2.160156 "/></g></g><g clip-rule="nonzero" clip-path="url(#2bda1f129f)"><path style=" stroke:none;fill-rule:nonzero;fill:#ffffff;fill-opacity:1;" d="M 280.578125 104.097656 C 268.75 104.097656 259.046875 113.800781 259.046875 125.628906 L 259.046875 125.640625 C 249.359375 125.683594 240.9375 130.136719 235.339844 137.046875 C 229.710938 143.992188 226.738281 153.265625 226.738281 163.308594 L 226.738281 213.015625 C 226.738281 252.765625 252.980469 281.734375 288.515625 281.734375 L 412.574219 281.734375 C 448.113281 281.734375 474.351562 252.765625 474.351562 213.015625 L 474.351562 163.308594 C 474.351562 153.265625 471.378906 143.992188 465.75 137.046875 C 460.160156 130.148438 451.757812 125.699219 442.085938 125.640625 L 442.085938 125.628906 C 442.085938 113.800781 432.382812 104.097656 420.554688 104.097656 L 398.929688 104.097656 C 387.101562 104.097656 377.398438 113.800781 377.398438 125.628906 L 323.589844 125.628906 C 323.589844 113.800781 313.886719 104.097656 302.058594 104.097656 Z M 280.578125 114.863281 L 302.058594 114.863281 C 308.066406 114.863281 312.824219 119.617188 312.824219 125.628906 L 269.8125 125.628906 C 269.8125 119.617188 274.566406 114.863281 280.578125 114.863281 Z M 398.929688 114.863281 L 420.554688 114.863281 C 426.566406 114.863281 431.320312 119.617188 431.320312 125.628906 L 388.164062 125.628906 C 388.164062 119.617188 392.917969 114.863281 398.929688 114.863281 Z M 259.195312 136.394531 L 441.898438 136.394531 C 448.5 136.394531 453.5625 139.101562 457.382812 143.816406 C 461.203125 148.535156 463.585938 155.40625 463.585938 163.308594 L 237.503906 163.308594 C 237.503906 155.40625 239.886719 148.535156 243.707031 143.816406 C 247.527344 139.101562 252.59375 136.394531 259.195312 136.394531 Z M 237.503906 174.074219 L 463.585938 174.074219 L 463.585938 213.015625 C 463.585938 248.230469 442.4375 270.964844 412.574219 270.964844 L 288.515625 270.964844 C 258.652344 270.964844 237.503906 248.230469 237.503906 213.015625 Z M 291.332031 190.222656 C 282.8125 190.222656 275.734375 193.613281 271.160156 198.761719 C 266.582031 203.90625 264.417969 210.558594 264.417969 217.136719 C 264.417969 223.71875 266.582031 230.367188 271.160156 235.515625 C 275.734375 240.664062 282.8125 244.050781 291.332031 244.050781 C 299.855469 244.050781 306.933594 240.664062 311.507812 235.515625 C 316.085938 230.367188 318.25 223.71875 318.25 217.136719 C 318.25 210.558594 316.085938 203.90625 311.507812 198.761719 C 306.933594 193.613281 299.855469 190.222656 291.332031 190.222656 Z M 372.078125 190.222656 C 371.371094 190.222656 370.667969 190.292969 369.976562 190.429688 C 369.285156 190.570312 368.609375 190.773438 367.957031 191.042969 C 367.304688 191.3125 366.683594 191.644531 366.097656 192.039062 C 365.507812 192.429688 364.964844 192.878906 364.464844 193.375 C 363.964844 193.875 363.519531 194.421875 363.125 195.007812 C 362.734375 195.597656 362.402344 196.214844 362.128906 196.871094 C 361.859375 197.523438 361.65625 198.195312 361.519531 198.890625 C 361.378906 199.582031 361.3125 200.28125 361.3125 200.988281 C 361.3125 201.695312 361.378906 202.394531 361.519531 203.089844 C 361.65625 203.78125 361.859375 204.457031 362.128906 205.109375 C 362.402344 205.761719 362.734375 206.382812 363.125 206.96875 C 363.519531 207.558594 363.964844 208.101562 364.464844 208.601562 C 364.964844 209.101562 365.507812 209.546875 366.09375 209.941406 C 366.683594 210.332031 367.304688 210.664062 367.957031 210.9375 C 368.609375 211.207031 369.285156 211.410156 369.976562 211.546875 C 370.667969 211.6875 371.371094 211.753906 372.078125 211.753906 C 372.785156 211.753906 373.484375 211.6875 374.175781 211.546875 C 374.871094 211.410156 375.542969 211.207031 376.195312 210.9375 C 376.851562 210.664062 377.46875 210.332031 378.058594 209.941406 C 378.644531 209.546875 379.191406 209.101562 379.6875 208.601562 C 380.1875 208.101562 380.636719 207.558594 381.027344 206.96875 C 381.421875 206.382812 381.753906 205.761719 382.023438 205.109375 C 382.292969 204.457031 382.496094 203.78125 382.636719 203.089844 C 382.773438 202.394531 382.84375 201.695312 382.84375 200.988281 C 382.84375 200.28125 382.773438 199.582031 382.636719 198.890625 C 382.496094 198.195312 382.292969 197.523438 382.023438 196.871094 C 381.753906 196.214844 381.421875 195.597656 381.027344 195.007812 C 380.636719 194.421875 380.1875 193.875 379.6875 193.375 C 379.191406 192.878906 378.644531 192.429688 378.058594 192.039062 C 377.46875 191.644531 376.851562 191.3125 376.195312 191.042969 C 375.542969 190.773438 374.871094 190.570312 374.175781 190.429688 C 373.484375 190.292969 372.785156 190.222656 372.078125 190.222656 Z M 420.523438 190.222656 L 420.523438 200.988281 L 431.289062 200.988281 L 431.289062 190.222656 Z M 291.332031 200.988281 C 297.164062 200.988281 300.855469 202.980469 303.457031 205.910156 C 306.058594 208.835938 307.480469 212.953125 307.480469 217.136719 C 307.480469 221.324219 306.058594 225.4375 303.457031 228.367188 C 300.855469 231.292969 297.164062 233.285156 291.332031 233.285156 C 285.503906 233.285156 281.8125 231.292969 279.210938 228.367188 C 276.609375 225.4375 275.183594 221.324219 275.183594 217.136719 C 275.183594 212.953125 276.609375 208.835938 279.210938 205.910156 C 281.8125 202.980469 285.503906 200.988281 291.332031 200.988281 Z M 350.546875 211.753906 C 349.839844 211.753906 349.136719 211.824219 348.445312 211.960938 C 347.75 212.101562 347.078125 212.304688 346.425781 212.574219 C 345.773438 212.84375 345.152344 213.175781 344.5625 213.570312 C 343.976562 213.960938 343.433594 214.410156 342.933594 214.910156 C 342.433594 215.410156 341.988281 215.953125 341.59375 216.539062 C 341.203125 217.128906 340.871094 217.746094 340.597656 218.402344 C 340.328125 219.054688 340.125 219.726562 339.988281 220.421875 C 339.847656 221.113281 339.78125 221.8125 339.78125 222.519531 C 339.78125 223.226562 339.847656 223.929688 339.988281 224.621094 C 340.125 225.316406 340.328125 225.988281 340.597656 226.640625 C 340.871094 227.292969 341.203125 227.914062 341.59375 228.503906 C 341.988281 229.089844 342.433594 229.632812 342.933594 230.132812 C 343.433594 230.632812 343.976562 231.078125 344.5625 231.472656 C 345.152344 231.863281 345.773438 232.195312 346.425781 232.46875 C 347.078125 232.738281 347.75 232.941406 348.445312 233.078125 C 349.136719 233.21875 349.839844 233.285156 350.546875 233.285156 C 351.253906 233.285156 351.953125 233.21875 352.644531 233.078125 C 353.339844 232.941406 354.011719 232.738281 354.664062 232.46875 C 355.316406 232.195312 355.9375 231.863281 356.527344 231.472656 C 357.113281 231.078125 357.65625 230.632812 358.15625 230.132812 C 358.65625 229.632812 359.105469 229.089844 359.496094 228.503906 C 359.890625 227.914062 360.222656 227.292969 360.492188 226.640625 C 360.761719 225.988281 360.964844 225.316406 361.105469 224.621094 C 361.242188 223.929688 361.3125 223.226562 361.3125 222.519531 C 361.3125 221.8125 361.242188 221.113281 361.105469 220.421875 C 360.964844 219.726562 360.761719 219.054688 360.492188 218.402344 C 360.222656 217.746094 359.890625 217.128906 359.496094 216.539062 C 359.105469 215.953125 358.65625 215.410156 358.15625 214.910156 C 357.65625 214.410156 357.113281 213.960938 356.527344 213.570312 C 355.9375 213.175781 355.316406 212.84375 354.664062 212.574219 C 354.011719 212.304688 353.339844 212.101562 352.644531 211.960938 C 351.953125 211.824219 351.253906 211.753906 350.546875 211.753906 Z M 393.609375 211.996094 C 392.890625 211.980469 392.179688 212.035156 391.476562 212.160156 C 390.769531 212.285156 390.085938 212.480469 389.417969 212.742188 C 388.75 213 388.117188 213.324219 387.515625 213.710938 C 386.914062 214.097656 386.359375 214.535156 385.847656 215.03125 C 385.332031 215.527344 384.875 216.070312 384.472656 216.65625 C 384.070312 217.242188 383.730469 217.859375 383.453125 218.515625 C 383.175781 219.167969 382.964844 219.839844 382.824219 220.535156 C 382.679688 221.230469 382.609375 221.933594 382.609375 222.640625 C 382.609375 223.351562 382.679688 224.050781 382.824219 224.746094 C 382.964844 225.441406 383.175781 226.117188 383.453125 226.769531 C 383.730469 227.421875 384.070312 228.042969 384.472656 228.628906 C 384.875 229.214844 385.332031 229.753906 385.847656 230.25 C 386.359375 230.746094 386.914062 231.1875 387.515625 231.574219 C 388.117188 231.960938 388.75 232.28125 389.417969 232.542969 C 390.085938 232.804688 390.769531 232.996094 391.476562 233.121094 C 392.179688 233.246094 392.890625 233.300781 393.609375 233.285156 C 394.324219 233.300781 395.035156 233.246094 395.742188 233.121094 C 396.445312 232.996094 397.132812 232.804688 397.800781 232.542969 C 398.464844 232.28125 399.097656 231.960938 399.699219 231.574219 C 400.300781 231.1875 400.859375 230.746094 401.371094 230.25 C 401.882812 229.753906 402.339844 229.214844 402.742188 228.628906 C 403.144531 228.042969 403.488281 227.421875 403.765625 226.769531 C 404.042969 226.117188 404.253906 225.441406 404.394531 224.746094 C 404.535156 224.050781 404.605469 223.351562 404.605469 222.640625 C 404.605469 221.933594 404.535156 221.230469 404.394531 220.535156 C 404.253906 219.839844 404.042969 219.167969 403.765625 218.515625 C 403.488281 217.859375 403.144531 217.242188 402.742188 216.65625 C 402.339844 216.070312 401.882812 215.527344 401.371094 215.03125 C 400.859375 214.535156 400.300781 214.097656 399.699219 213.710938 C 399.097656 213.324219 398.464844 213 397.800781 212.742188 C 397.132812 212.480469 396.445312 212.285156 395.742188 212.160156 C 395.035156 212.035156 394.324219 211.980469 393.609375 211.996094 Z M 372.078125 233.285156 C 371.371094 233.285156 370.667969 233.355469 369.976562 233.492188 C 369.285156 233.632812 368.609375 233.835938 367.957031 234.105469 C 367.304688 234.375 366.683594 234.707031 366.097656 235.101562 C 365.507812 235.492188 364.964844 235.941406 364.464844 236.441406 C 363.964844 236.941406 363.519531 237.484375 363.125 238.070312 C 362.734375 238.660156 362.402344 239.28125 362.128906 239.933594 C 361.859375 240.585938 361.65625 241.257812 361.519531 241.953125 C 361.378906 242.644531 361.3125 243.34375 361.3125 244.050781 C 361.3125 244.757812 361.378906 245.460938 361.519531 246.152344 C 361.65625 246.847656 361.859375 247.519531 362.128906 248.171875 C 362.402344 248.824219 362.734375 249.445312 363.125 250.035156 C 363.519531 250.621094 363.964844 251.164062 364.464844 251.664062 C 364.964844 252.164062 365.507812 252.609375 366.09375 253.003906 C 366.683594 253.398438 367.304688 253.726562 367.957031 254 C 368.609375 254.269531 369.285156 254.472656 369.976562 254.609375 C 370.667969 254.75 371.371094 254.816406 372.078125 254.816406 C 372.785156 254.816406 373.484375 254.75 374.175781 254.609375 C 374.871094 254.472656 375.542969 254.269531 376.195312 254 C 376.851562 253.726562 377.46875 253.398438 378.058594 253.003906 C 378.644531 252.609375 379.191406 252.164062 379.6875 251.664062 C 380.1875 251.164062 380.636719 250.621094 381.027344 250.035156 C 381.421875 249.445312 381.753906 248.824219 382.023438 248.171875 C 382.292969 247.519531 382.496094 246.847656 382.636719 246.152344 C 382.773438 245.460938 382.84375 244.757812 382.84375 244.050781 C 382.84375 243.34375 382.773438 242.644531 382.636719 241.953125 C 382.496094 241.257812 382.292969 240.585938 382.023438 239.933594 C 381.753906 239.28125 381.421875 238.660156 381.027344 238.070312 C 380.636719 237.484375 380.1875 236.941406 379.6875 236.441406 C 379.191406 235.941406 378.644531 235.492188 378.058594 235.101562 C 377.46875 234.707031 376.851562 234.375 376.195312 234.105469 C 375.542969 233.835938 374.871094 233.632812 374.175781 233.492188 C 373.484375 233.355469 372.785156 233.285156 372.078125 233.285156 Z M 372.078125 233.285156 "/></g><g style="fill:#ffffff;fill-opacity:1;"><g transform="translate(711.394043, 194.998432)"><path style="stroke:none" d="M 0.96875 0 L 0.96875 -6.421875 L 3.3125 -6.421875 C 3.738281 -6.421875 4.097656 -6.347656 4.390625 -6.203125 C 4.679688 -6.066406 4.898438 -5.867188 5.046875 -5.609375 C 5.191406 -5.347656 5.265625 -5.039062 5.265625 -4.6875 C 5.265625 -4.289062 5.164062 -3.960938 4.96875 -3.703125 C 4.769531 -3.441406 4.457031 -3.25 4.03125 -3.125 L 4.03125 -3.03125 C 4.238281 -2.945312 4.410156 -2.816406 4.546875 -2.640625 C 4.679688 -2.460938 4.800781 -2.203125 4.90625 -1.859375 L 5.5 0 L 4.734375 0 L 4.09375 -1.96875 C 4.007812 -2.195312 3.914062 -2.375 3.8125 -2.5 C 3.71875 -2.632812 3.59375 -2.734375 3.4375 -2.796875 C 3.289062 -2.859375 3.097656 -2.890625 2.859375 -2.890625 L 1.734375 -2.890625 L 1.734375 0 Z M 3.28125 -3.53125 C 3.6875 -3.53125 3.988281 -3.617188 4.1875 -3.796875 C 4.382812 -3.984375 4.484375 -4.269531 4.484375 -4.65625 C 4.484375 -5.03125 4.382812 -5.3125 4.1875 -5.5 C 3.988281 -5.6875 3.6875 -5.78125 3.28125 -5.78125 L 1.734375 -5.78125 L 1.734375 -3.53125 Z M 3.28125 -3.53125 "/></g><g transform="translate(717.341159, 194.998432)"><path style="stroke:none" d="M 3.3125 0.09375 C 2.519531 0.09375 1.921875 -0.101562 1.515625 -0.5 C 1.117188 -0.90625 0.921875 -1.5 0.921875 -2.28125 L 0.921875 -6.421875 L 1.671875 -6.421875 L 1.671875 -2.296875 C 1.671875 -1.734375 1.804688 -1.3125 2.078125 -1.03125 C 2.347656 -0.75 2.757812 -0.609375 3.3125 -0.609375 C 4.40625 -0.609375 4.953125 -1.171875 4.953125 -2.296875 L 4.953125 -6.421875 L 5.703125 -6.421875 L 5.703125 -2.28125 C 5.703125 -1.5 5.5 -0.90625 5.09375 -0.5 C 4.695312 -0.101562 4.101562 0.09375 3.3125 0.09375 Z M 3.3125 0.09375 "/></g><g transform="translate(723.960289, 194.998432)"><path style="stroke:none" d="M 3.140625 0 L 2.390625 0 L 2.390625 -2.515625 L 0.171875 -6.421875 L 1 -6.421875 L 2.71875 -3.421875 L 2.828125 -3.421875 L 4.546875 -6.421875 L 5.359375 -6.421875 L 3.140625 -2.515625 Z M 3.140625 0 "/></g><g transform="translate(729.481355, 194.998432)"><path style="stroke:none" d="M 3.3125 0.09375 C 2.519531 0.09375 1.921875 -0.101562 1.515625 -0.5 C 1.117188 -0.90625 0.921875 -1.5 0.921875 -2.28125 L 0.921875 -6.421875 L 1.671875 -6.421875 L 1.671875 -2.296875 C 1.671875 -1.734375 1.804688 -1.3125 2.078125 -1.03125 C 2.347656 -0.75 2.757812 -0.609375 3.3125 -0.609375 C 4.40625 -0.609375 4.953125 -1.171875 4.953125 -2.296875 L 4.953125 -6.421875 L 5.703125 -6.421875 L 5.703125 -2.28125 C 5.703125 -1.5 5.5 -0.90625 5.09375 -0.5 C 4.695312 -0.101562 4.101562 0.09375 3.3125 0.09375 Z M 3.3125 0.09375 "/></g></g></g></svg>